<svg xmlns="http://www.w3.org/2000/svg" width="56.273" height="80" viewBox="0 0 56.273 80"><g transform="translate(16.837)"><path d="M100.371,22.6a11.3,11.3,0,1,0-11.3-11.3A11.3,11.3,0,0,0,100.371,22.6Z" transform="translate(-89.071)" fill="#138bef"/><path d="M148.846,59.778" transform="translate(-137.547 -48.478)" fill="#138bef"/></g><path d="M28.118,150.665H16.174V142.04l-9.135,9.2c-4.127,4.127-9.721-1.165-5.587-5.3l15.126-15.155a6.155,6.155,0,0,1,4.7-1.993H34.841a6.419,6.419,0,0,1,4.831,1.993l15.279,15.3c3.935,3.935-1.809,9.278-5.584,5.3l-9.375-9.394v8.672H28.118Z" transform="translate(0 -104.444)" fill="#138bef"/><path d="M166.162,268.179l-8.977,8.978,6.591,6.578-6.753,6.753a3.973,3.973,0,1,0,5.635,5.565l10.681-11.106c2.292-2.339,2.926-6.66.469-9.117Z" transform="translate(-126.22 -217.484)" fill="#138bef"/><path d="M46.038,268.179l8.977,8.978-6.591,6.578,6.753,6.753a3.973,3.973,0,1,1-5.635,5.565L38.862,284.948c-2.292-2.339-2.926-6.66-.469-9.117Z" transform="translate(-29.862 -217.484)" fill="#138bef"/></svg>