<svg xmlns="http://www.w3.org/2000/svg" width="55.984" height="64" viewBox="0 0 55.984 64"><g transform="translate(-8.029)"><path d="M55.324,47.891c4.474-7.225,8.389-17.982,8.689-33.649a1.881,1.881,0,0,0-1.623-1.889C62.222,12.329,45.6,9.849,37.458.641A1.909,1.909,0,0,0,36.069,0h-.062a1.9,1.9,0,0,0-1.354.584c-.1.108-10.585,10.837-23.616,10.837-.337,0-.674-.007-1.014-.022l-.094,0a1.886,1.886,0,0,0-1.883,1.783A74.657,74.657,0,0,0,10.6,34.267a51.16,51.16,0,0,0,7.936,17.05v0c-.217-7.045,3.147-12.755,6.508-17.429.835-1.161,1.769-2.316,2.673-3.433l.073-.09a6.128,6.128,0,0,1-2.134-2.942,3,3,0,0,1,3.712-3.8,9.6,9.6,0,0,0-.826-1.892c-.045-.064-.1-.135-.152-.207a4.038,4.038,0,0,1-1.006-3.358,3.082,3.082,0,0,1,4.046-2.2,5.539,5.539,0,0,1,1.557.936c.074.059.158.124.234.18l0,0c.062-.066.132-.164.209-.265A3.784,3.784,0,0,1,36.34,15a2.811,2.811,0,0,1,1.432.4,4.128,4.128,0,0,1,1.361,1.427l.045.068a6.285,6.285,0,0,0,.573-.343c.2-.132.414-.267.636-.394a4.727,4.727,0,0,1,2.337-.686A3.326,3.326,0,0,1,46.1,18.631a4.466,4.466,0,0,1-.937,2.621,4.415,4.415,0,0,0-.259.416,29.946,29.946,0,0,0-1.381,5.513,39.377,39.377,0,0,0,2.675,3.3c.926,1.062,1.885,2.16,2.784,3.409,2.8,3.893,5.606,8.5,6.342,14Z" fill="#fff"/><path d="M33.041,68.871c.49,7.85,7.575,11.69,14.03,12.06a41.472,41.472,0,0,0,4.86,0c6.455-.37,13.54-4.21,14.03-12.06.415-6.555-2.54-11.845-6.115-16.815-.924-1.282-1.93-2.415-2.923-3.555H41.931c-.961,1.188-1.923,2.369-2.775,3.555C35.581,57.026,32.626,62.316,33.041,68.871ZM45.181,66.5a1.011,1.011,0,0,1,1.27.63,3.263,3.263,0,0,0,1.8,1.895,3.4,3.4,0,0,0,2.73.07,1.691,1.691,0,0,0,1.11-1.985c-.31-.985-1.235-1.3-2.72-1.74-1.39-.4-2.965-.865-3.85-2.36a3.923,3.923,0,0,1,.01-4.08,4.22,4.22,0,0,1,2.98-1.835A.551.551,0,0,1,48.5,57V55.506a1,1,0,1,1,2,0V57a.438.438,0,0,1-.01.08c.08.015.155.025.225.04a5.053,5.053,0,0,1,3.75,3.43,1,1,0,0,1-1.93.53A3.176,3.176,0,0,0,47.216,60a1.947,1.947,0,0,0,.03,1.99c.48.81,1.5,1.11,2.685,1.455,1.525.445,3.425,1,4.07,3.065a3.676,3.676,0,0,1-2.215,4.415,5.217,5.217,0,0,1-1.285.355v1.23a1,1,0,0,1-2,0V71.2a6.266,6.266,0,0,1-1.06-.35,5.277,5.277,0,0,1-2.89-3.085,1.007,1.007,0,0,1,.63-1.27Zm-2.175-22.15a2.119,2.119,0,0,1-1.055-1.15,1,1,0,1,0-1.9.61,4.076,4.076,0,0,0,2.12,2.355,3.912,3.912,0,0,0,1.36.335l0,.005H55.246c-.467-.592-.918-1.206-1.341-1.865a37.4,37.4,0,0,1,1.68-6.83c.33-.69,1.015-1.315,1-2.13a1.357,1.357,0,0,0-1.375-1.2,2.816,2.816,0,0,0-1.34.42,4.727,4.727,0,0,1-2.3,1.035,2.206,2.206,0,0,1-.495-.055c-.07-.015-.14-.035-.2-.055-.755-.215-.975-1.31-1.62-1.69-.925-.54-1.595.83-2.11,1.36a2,2,0,0,1-1.395.715,1.561,1.561,0,0,1-.67-.16c-.655-.3-1.14-.93-1.835-1.185a1.09,1.09,0,0,0-.37-.065,1.069,1.069,0,0,0-1.05.825c-.17.745.445,1.4.845,1.97,0,0,1.3,1.85,2.18,6.755a2.657,2.657,0,0,1-1.84,0Zm2.74-6.147a3.913,3.913,0,0,0,2.832-1.321c.061-.063.12-.127.176-.191a3.152,3.152,0,0,0,1.566,1.055c.108.031.217.059.326.083a4.167,4.167,0,0,0,2.937-.418,39.273,39.273,0,0,0-1.6,6.6H46.818a27.793,27.793,0,0,0-1.628-5.852,3.436,3.436,0,0,0,.555.045Z" transform="translate(-12.487 -17.002)" fill="#fff"/></g></svg>