<svg xmlns="http://www.w3.org/2000/svg" width="61" height="61" viewBox="0 0 61 61"><g transform="translate(-1 -1)"><path d="M25.3,7A18.3,18.3,0,1,0,43.6,25.3,18.3,18.3,0,0,0,25.3,7ZM22.941,19.017l1.708,4.25h2.684a2.033,2.033,0,1,1,0,4.067H25.178a16.612,16.612,0,0,1-2.033,6.1H31.4a2.033,2.033,0,1,1,0,4.067H19.2a2.031,2.031,0,0,1-1.586-3.294l.935-1.179a12.2,12.2,0,0,0,2.5-5.693H19.2a2.033,2.033,0,1,1,0-4.067h1.057L19.2,20.522a5.409,5.409,0,0,1,5-7.422h3.823a5.409,5.409,0,0,1,5.409,5.409,2.033,2.033,0,1,1-4.067,0,1.362,1.362,0,0,0-1.342-1.342H24.2a1.362,1.362,0,0,0-1.261,1.85Z" transform="translate(6.2 6.2)" fill="#fff"/><path d="M31.5,1A30.5,30.5,0,1,0,62,31.5,30.5,30.5,0,0,0,31.5,1Zm0,52.867A22.367,22.367,0,1,1,53.867,31.5,22.367,22.367,0,0,1,31.5,53.867Z" fill="#fff"/></g></svg>