<svg xmlns="http://www.w3.org/2000/svg" width="64" height="55.161" viewBox="0 0 64 55.161"><g transform="translate(-3 -3.01)"><circle cx="1.655" cy="1.655" r="1.655" transform="translate(33.345 7.964)" fill="#138bef"/><path d="M65.9,20.654H57.455L41.356,7.777a6.621,6.621,0,0,0-12.712,0l-16.1,12.877H4.1a1.1,1.1,0,0,0-1.1,1.1v3.31a1.1,1.1,0,0,0,1.1,1.1H65.9a1.1,1.1,0,0,0,1.1-1.1v-3.31A1.1,1.1,0,0,0,65.9,20.654ZM35,5.206A4.414,4.414,0,1,1,30.586,9.62,4.414,4.414,0,0,1,35,5.206ZM16.076,20.654l12.4-9.931a6.621,6.621,0,0,0,13.043,0l12.4,9.931Z" transform="translate(0 0)" fill="#138bef"/><rect width="64" height="5.517" rx="1" transform="translate(3 52.654)" fill="#138bef"/><path d="M50.414,31H46V42.034h4.414a2.207,2.207,0,0,0,2.207-2.207V33.207A2.207,2.207,0,0,0,50.414,31Z" transform="translate(4.448 2.896)" fill="#138bef"/><rect width="7.724" height="11.034" rx="3" transform="translate(26.172 33.896)" fill="#138bef"/><path d="M5,26V48.069H64.586V26Zm9.611,9.931h2.847a4.414,4.414,0,0,1,0,8.828H14.611A4.414,4.414,0,0,1,10.2,40.345H12.4a2.207,2.207,0,0,0,2.207,2.207h2.847a2.207,2.207,0,1,0,0-4.414H14.611a4.414,4.414,0,1,1,0-8.828h2.847a4.414,4.414,0,0,1,4.414,4.414H19.665a2.207,2.207,0,0,0-2.207-2.207H14.611a2.207,2.207,0,1,0,0,4.414ZM35.9,39.241a5.517,5.517,0,0,1-5.517,5.517h-1.1a5.517,5.517,0,0,1-5.517-5.517V34.828a5.517,5.517,0,0,1,5.517-5.517h1.1A5.517,5.517,0,0,1,35.9,34.828Zm9.931,5.517H39.207a1.1,1.1,0,0,1-1.1-1.1V29.31H40.31V42.552h5.517Zm13.241-4.414a4.414,4.414,0,0,1-4.414,4.414H49.138a1.1,1.1,0,0,1-1.1-1.1V30.414a1.1,1.1,0,0,1,1.1-1.1h5.517a4.414,4.414,0,0,1,4.414,4.414Z" transform="translate(0.207 2.378)" fill="#138bef"/></g></svg>