<svg xmlns="http://www.w3.org/2000/svg" width="54" height="58.723" viewBox="0 0 54 58.723"><g transform="translate(-5 -2.567)"><path d="M32,7.29a27,27,0,1,0,27,27,27,27,0,0,0-27-27ZM32,38.7a4.39,4.39,0,0,1-4.38-4.39,4.33,4.33,0,0,1,.67-2.3l-8.7-8.69A1,1,0,0,1,21,21.9l8.7,8.7a4.3,4.3,0,0,1,2.3-.67,4.39,4.39,0,0,1,0,8.77Z" fill="#fff"/><path d="M32,31.93a2.48,2.48,0,0,0-.82.15l1.53,1.53a1,1,0,1,1-1.42,1.41L29.77,33.5a2.42,2.42,0,0,0-.15.81A2.38,2.38,0,1,0,32,31.93ZM7.74,12.13a1,1,0,0,0,.71-.29l7.47-7.47A1,1,0,1,0,14.5,3L7,10.43a1,1,0,0,0,.71,1.71Zm48.58-.29a1,1,0,0,0,1.41-1.41L50.26,3a1,1,0,0,0-1.41,1.41Z" fill="#fff"/></g></svg>