<svg xmlns="http://www.w3.org/2000/svg" width="61.411" height="61.411" viewBox="0 0 61.411 61.411"><path d="M31.206.5A30.706,30.706,0,1,0,61.911,31.206,30.732,30.732,0,0,0,31.206.5ZM19.538,17.873a4.259,4.259,0,1,1-4.259,4.259A4.253,4.253,0,0,1,19.538,17.873ZM17.913,37.783a2.989,2.989,0,0,1,4.2,0,12.818,12.818,0,0,0,18.186,0,2.989,2.989,0,0,1,4.2,0,2.953,2.953,0,0,1,0,4.2,18.748,18.748,0,0,1-26.585,0A2.953,2.953,0,0,1,17.913,37.783ZM42.874,26.392a4.259,4.259,0,1,1,4.259-4.259A4.265,4.265,0,0,1,42.874,26.392Z" transform="translate(-0.5 -0.5)" fill="#fff"/></svg>