<svg xmlns="http://www.w3.org/2000/svg" width="59.613" height="55.888" viewBox="0 0 59.613 55.888"><path d="M55.888,9.452H37.258v3.726a3.726,3.726,0,1,1,0,7.452h-14.9a3.726,3.726,0,1,1,0-7.452V9.452H3.726A3.726,3.726,0,0,0,0,13.178V54.162a3.726,3.726,0,0,0,3.726,3.726H55.888a3.726,3.726,0,0,0,3.726-3.726V13.178A3.726,3.726,0,0,0,55.888,9.452ZM27.944,28.081H50.608a1.863,1.863,0,0,1,0,3.726H27.944a1.863,1.863,0,1,1,0-3.726Zm0,7.452H50.608a1.863,1.863,0,0,1,0,3.726H27.944a1.863,1.863,0,1,1,0-3.726Zm0,7.452H50.608a1.863,1.863,0,0,1,0,3.726H27.944a1.863,1.863,0,1,1,0-3.726ZM22.355,45.03c0,5.455-14.728,5.455-14.728,0s3.3-9.873,7.362-9.873S22.355,39.575,22.355,45.03ZM19.4,28.856a4.5,4.5,0,1,1-4.5-4.5A4.5,4.5,0,0,1,19.4,28.856ZM26.081,2h7.452V16.9H26.081Z" transform="translate(0 -2)" fill="#fff"/></svg>