<svg xmlns="http://www.w3.org/2000/svg" width="88" height="56" viewBox="0 0 88 56"><path d="M88,32.746v5.026a1.411,1.411,0,0,1-1.375,1.436H78.237a1.408,1.408,0,0,1-1.375-1.436V32.746a1.411,1.411,0,0,1,1.375-1.436h8.388A1.329,1.329,0,0,1,88,32.746ZM7.837,16.951A4.382,4.382,0,0,1,12.1,12.5H38.362a4.35,4.35,0,0,1,4.263,4.308h0V39.064H18.012a1.581,1.581,0,0,0,0,3.159H69.987a1.581,1.581,0,0,0,0-3.159H45.512V16.951h0a4.257,4.257,0,0,1,4.262-4.308H76.037A4.382,4.382,0,0,1,80.3,17.095V28.439H78.375a4.382,4.382,0,0,0-4.263,4.451v5.026a4.382,4.382,0,0,0,4.263,4.451H85.25v8.472H2.887V42.367H9.762a4.382,4.382,0,0,0,4.262-4.451V32.89a4.382,4.382,0,0,0-4.262-4.451H7.837ZM0,32.746A1.411,1.411,0,0,1,1.375,31.31H9.762a1.329,1.329,0,0,1,1.375,1.436v5.026a1.411,1.411,0,0,1-1.375,1.436H1.375A1.408,1.408,0,0,1,0,37.772ZM19.663,68.5H10.45V65.341h9.212Zm57.887,0H68.337V65.341H77.55Zm4.813-6.174H5.638a2.821,2.821,0,0,1-2.75-2.872v-5.6H85.112v5.6A2.918,2.918,0,0,1,82.362,62.326Z" transform="translate(0 -12.5)" fill="#138bef"/></svg>